<?xml version="1.0" standalone="no"?>
<!DOCTYPE svg PUBLIC "-//W3C//DTD SVG 20010904//EN"
 "http://www.w3.org/TR/2001/REC-SVG-20010904/DTD/svg10.dtd">
<svg version="1.0" xmlns="http://www.w3.org/2000/svg"
 width="189.000000pt" height="189.000000pt" viewBox="0 0 189.000000 189.000000"
 preserveAspectRatio="xMidYMid meet">
<metadata>
Created by potrace 1.14, written by Peter Selinger 2001-2017
</metadata>
<g transform="translate(0.000000,189.000000) scale(0.100000,-0.100000)"
fill="#000000" stroke="none">
<path d="M0 945 l0 -945 945 0 945 0 0 945 0 945 -945 0 -945 0 0 -945z m1448
762 c78 -42 185 -245 306 -579 40 -112 46 -138 55 -263 13 -158 5 -234 -31
-304 -30 -56 -85 -101 -145 -116 l-48 -12 -7 -123 c-4 -67 -12 -128 -18 -134
-13 -13 -160 -20 -178 -8 -9 6 -15 48 -19 140 l-6 132 -427 0 -427 0 -6 -131
c-3 -73 -10 -136 -15 -141 -13 -13 -168 -6 -182 8 -6 6 -14 67 -18 134 l-7
123 -48 12 c-60 15 -115 60 -145 116 -36 70 -44 146 -32 302 10 120 16 153 50
247 114 318 227 541 298 588 41 27 107 30 577 28 401 -1 443 -3 473 -19z"/>
<path d="M525 1644 c-52 -13 -77 -30 -103 -73 -41 -67 -130 -271 -142 -327
-23 -103 0 -106 696 -102 641 4 627 2 604 103 -13 57 -104 267 -141 326 -48
76 -34 74 -489 76 -223 0 -414 -1 -425 -3z"/>
<path d="M226 937 c-45 -25 -86 -93 -86 -141 0 -41 38 -115 72 -139 36 -26
114 -33 159 -14 86 36 124 151 77 232 -46 79 -145 106 -222 62z"/>
<path d="M1475 937 c-47 -26 -85 -92 -85 -147 0 -42 35 -105 73 -134 40 -30
144 -30 184 0 35 25 73 98 73 139 0 17 -10 51 -22 75 -42 83 -141 113 -223 67z"/>
<path d="M632 924 c-28 -19 -28 -55 -1 -80 20 -18 40 -19 299 -19 259 0 279 1
299 19 27 25 27 61 -1 80 -19 14 -65 16 -298 16 -233 0 -279 -2 -298 -16z"/>
<path d="M643 768 c-43 -21 -41 -82 4 -99 33 -12 534 -12 568 1 46 18 46 77 0
98 -34 16 -540 15 -572 0z"/>
</g>
</svg>
